<?xml version="1.0" encoding="utf-8"?>
<!-- Generator: Adobe Illustrator 21.1.0, SVG Export Plug-In . SVG Version: 6.00 Build 0)  -->
<svg version="1.1"
	 id="Ebene_1" inkscape:version="0.91 r13725" sodipodi:docname="add.svg" xmlns:cc="http://creativecommons.org/ns#" xmlns:dc="http://purl.org/dc/elements/1.1/" xmlns:inkscape="http://www.inkscape.org/namespaces/inkscape" xmlns:rdf="http://www.w3.org/1999/02/22-rdf-syntax-ns#" xmlns:sodipodi="http://sodipodi.sourceforge.net/DTD/sodipodi-0.dtd" xmlns:svg="http://www.w3.org/2000/svg"
	 xmlns="http://www.w3.org/2000/svg" xmlns:xlink="http://www.w3.org/1999/xlink" x="0px" y="0px" viewBox="0 0 11 11"
	 style="enable-background:new 0 0 11 11;" xml:space="preserve">
<style type="text/css">
	.st0{fill:none;stroke:#000000;stroke-linecap:square;stroke-miterlimit:1;}
	.st1{stroke:#000000;stroke-linecap:square;stroke-miterlimit:1;}
</style>
<sodipodi:namedview  bordercolor="#666666" borderopacity="1" gridtolerance="10" guidetolerance="10" id="namedview4192" inkscape:current-layer="Ebene_1" inkscape:cx="3.0063559" inkscape:cy="5.5" inkscape:pageopacity="0" inkscape:pageshadow="2" inkscape:window-height="900" inkscape:window-maximized="0" inkscape:window-width="1674" inkscape:window-x="0" inkscape:window-y="0" inkscape:zoom="21.454545" objecttolerance="10" pagecolor="#ffffff" showgrid="false">
	</sodipodi:namedview>
<path class="st0" d="M9.7,3.6L7.6,1.5c-0.4-0.4-1-0.4-1.4,0L1.3,6.3C1,6.6,1,7.3,1.3,7.7l2.1,2.1c0.4,0.4,1,0.4,1.4,0L9.7,5
	C10,4.6,10,3.9,9.7,3.6z"/>
<path class="st1" d="M9.7,3.6L7.6,1.5c-0.4-0.4-1-0.4-1.4,0L3.9,3.7c-0.4,0.4-0.4,1,0,1.4L6,7.3c0.4,0.4,1,0.4,1.4,0L9.7,5
	C10,4.6,10,3.9,9.7,3.6z"/>
</svg>
